<svg width="32" height="32" viewBox="0 0 32 32" fill="none" xmlns="http://www.w3.org/2000/svg">
<g clip-path="url(#clip0_3_200)">
<path d="M7 10H25V8H7C5.9 8 5 8.9 5 10V22C5 23.1 5.9 24 7 24H11V22H7V10ZM17 16H13V17.78C12.39 18.33 12 19.11 12 20C12 20.89 12.39 21.67 13 22.22V24H17V22.22C17.61 21.67 18 20.88 18 20C18 19.12 17.61 18.33 17 17.78V16ZM15 21.5C14.17 21.5 13.5 20.83 13.5 20C13.5 19.17 14.17 18.5 15 18.5C15.83 18.5 16.5 19.17 16.5 20C16.5 20.83 15.83 21.5 15 21.5ZM26 12H20C19.5 12 19 12.5 19 13V23C19 23.5 19.5 24 20 24H26C26.5 24 27 23.5 27 23V13C27 12.5 26.5 12 26 12ZM25 22H21V14H25V22Z" fill="#0B194A"/>
<path d="M16.2322 10.5822C16.2059 10.5457 16.1713 10.5159 16.1313 10.4954C16.0912 10.4749 16.0469 10.4642 16.0019 10.4642C15.9569 10.4642 15.9125 10.4749 15.8725 10.4954C15.8324 10.5159 15.7978 10.5457 15.7715 10.5822L9.41438 19.3679C9.27866 19.5572 9.41438 19.8215 9.64652 19.8215H11.3215C11.6858 19.8215 12.0322 19.6465 12.2465 19.35L16.0001 14.1572L19.7572 19.35C19.9715 19.6465 20.3144 19.8215 20.6822 19.8215H22.3572C22.5894 19.8215 22.7251 19.5572 22.5894 19.3679L16.2322 10.5822Z" fill="#0B194A"/>
<path d="M16 0C7.16429 0 0 7.16429 0 16C0 24.8357 7.16429 32 16 32C24.8357 32 32 24.8357 32 16C32 7.16429 24.8357 0 16 0ZM16 29.2857C8.66429 29.2857 2.71429 23.3357 2.71429 16C2.71429 8.66429 8.66429 2.71429 16 2.71429C23.3357 2.71429 29.2857 8.66429 29.2857 16C29.2857 23.3357 23.3357 29.2857 16 29.2857Z" fill="#0B194A"/>
</g>
<defs>
<clipPath id="clip0_3_200">
<rect width="32" height="32" fill="white"/>
</clipPath>
</defs>
</svg>
